# xmcd
#
# Track frame offsets:
#	150
#	24197
#	40305
#	57409
#	78447
#	94735
#	117848
#	137129
#	159716
#	178603
#
# Disc length: 2707 seconds
#
# Revision: 0
# Processed by: cddbd v1.5.2PL0 Copyright (c) Steve Scherf et al.
# Submitted via: EZCDAudioConverter 8.0.2.1
#
DISCID=7d0a910a
DTITLE=Various Artist - Golden Eyes
DYEAR=1996
DGENRE=
TTITLE0=Trizzie Phương Trinh - Golden Eyes
TTITLE1=Trung Hành, Ngọc Bích - Tonight I Celebrate My Love For You
TTITLE2=Dạ Nhật Yến - Turn The Beat Around
TTITLE3=Tuấn Cường, Thành Lê, Henry Chúc - Besame Mucho
TTITLE4=Lilian - D. J. Girl
TTITLE5=Dalena, Henry Chúc - Green Fields
TTITLE6=Dạ Nhật Yến - Unbreak My Heart
TTITLE7=Trizzie Phương Trinh - Ride My Bike
TTITLE8=Ngọc Thủy, Ngọc Bích - Hasta Manana
TTITLE9=Dạ Nhật Yến - Sweet Dream II
EXTD=
EXTT0=
EXTT1=
EXTT2=
EXTT3=
EXTT4=
EXTT5=
EXTT6=
EXTT7=
EXTT8=
EXTT9=
PLAYORDER=
